<mxfile host="Electron" agent="Mozilla/5.0 (Windows NT 10.0; Win64; x64) AppleWebKit/537.36 (KHTML, like Gecko) draw.io/26.2.2 Chrome/134.0.6998.178 Electron/35.1.2 Safari/537.36" version="26.2.2">
  <diagram name="페이지-1" id="b482vBPNtRvSyO136uT0">
    <mxGraphModel dx="1720" dy="1681" grid="1" gridSize="10" guides="1" tooltips="1" connect="1" arrows="1" fold="1" page="1" pageScale="1" pageWidth="827" pageHeight="1169" math="0" shadow="0">
      <root>
        <mxCell id="0" />
        <mxCell id="1" parent="0" />
        <mxCell id="yyPYi6cn76s6Jaijz5V_-51" value="" style="rounded=1;whiteSpace=wrap;html=1;" vertex="1" parent="1">
          <mxGeometry x="-240" y="-80" width="750" height="500" as="geometry" />
        </mxCell>
        <mxCell id="yyPYi6cn76s6Jaijz5V_-17" value="" style="rounded=1;whiteSpace=wrap;html=1;" vertex="1" parent="1">
          <mxGeometry x="-160" y="-70" width="580" height="210" as="geometry" />
        </mxCell>
        <mxCell id="yyPYi6cn76s6Jaijz5V_-1" value="" style="rounded=1;whiteSpace=wrap;html=1;" vertex="1" parent="1">
          <mxGeometry x="-100" y="-40" width="230" height="150" as="geometry" />
        </mxCell>
        <mxCell id="yyPYi6cn76s6Jaijz5V_-2" value="ObjectPool&amp;lt;SendBuffer&amp;gt;" style="text;html=1;align=center;verticalAlign=middle;resizable=0;points=[];autosize=1;strokeColor=none;fillColor=none;" vertex="1" parent="1">
          <mxGeometry x="-65" y="-30" width="160" height="30" as="geometry" />
        </mxCell>
        <mxCell id="yyPYi6cn76s6Jaijz5V_-3" value="SendBuffer1 (obj)" style="rounded=0;whiteSpace=wrap;html=1;" vertex="1" parent="1">
          <mxGeometry x="-65" width="80" height="40" as="geometry" />
        </mxCell>
        <mxCell id="yyPYi6cn76s6Jaijz5V_-4" value="SendBuffer2&lt;br&gt;(obj)" style="rounded=0;whiteSpace=wrap;html=1;" vertex="1" parent="1">
          <mxGeometry x="15" width="80" height="40" as="geometry" />
        </mxCell>
        <mxCell id="yyPYi6cn76s6Jaijz5V_-5" value="SendBuffer3&lt;div&gt;(obj)&lt;/div&gt;" style="rounded=0;whiteSpace=wrap;html=1;" vertex="1" parent="1">
          <mxGeometry x="-65" y="40" width="80" height="40" as="geometry" />
        </mxCell>
        <mxCell id="yyPYi6cn76s6Jaijz5V_-6" value="SendBuffer4&lt;div&gt;(obj)&lt;/div&gt;" style="rounded=0;whiteSpace=wrap;html=1;" vertex="1" parent="1">
          <mxGeometry x="15" y="40" width="80" height="40" as="geometry" />
        </mxCell>
        <mxCell id="yyPYi6cn76s6Jaijz5V_-7" value="" style="rounded=1;whiteSpace=wrap;html=1;" vertex="1" parent="1">
          <mxGeometry x="-230" y="170" width="350" height="220" as="geometry" />
        </mxCell>
        <mxCell id="yyPYi6cn76s6Jaijz5V_-9" value="Thread1" style="text;html=1;align=center;verticalAlign=middle;resizable=0;points=[];autosize=1;strokeColor=none;fillColor=none;" vertex="1" parent="1">
          <mxGeometry x="-220" y="180" width="70" height="30" as="geometry" />
        </mxCell>
        <mxCell id="yyPYi6cn76s6Jaijz5V_-10" value="" style="rounded=1;whiteSpace=wrap;html=1;" vertex="1" parent="1">
          <mxGeometry x="135" y="170" width="350" height="220" as="geometry" />
        </mxCell>
        <mxCell id="yyPYi6cn76s6Jaijz5V_-11" value="Thread2 ..." style="text;html=1;align=center;verticalAlign=middle;resizable=0;points=[];autosize=1;strokeColor=none;fillColor=none;" vertex="1" parent="1">
          <mxGeometry x="150" y="180" width="80" height="30" as="geometry" />
        </mxCell>
        <mxCell id="yyPYi6cn76s6Jaijz5V_-14" value="" style="rounded=1;whiteSpace=wrap;html=1;" vertex="1" parent="1">
          <mxGeometry x="150" y="-40" width="240" height="150" as="geometry" />
        </mxCell>
        <mxCell id="yyPYi6cn76s6Jaijz5V_-16" value="SendBufferManager" style="text;html=1;align=center;verticalAlign=middle;resizable=0;points=[];autosize=1;strokeColor=none;fillColor=none;" vertex="1" parent="1">
          <mxGeometry x="160" y="-40" width="130" height="30" as="geometry" />
        </mxCell>
        <mxCell id="yyPYi6cn76s6Jaijz5V_-18" value="Heap" style="text;html=1;align=center;verticalAlign=middle;resizable=0;points=[];autosize=1;strokeColor=none;fillColor=none;" vertex="1" parent="1">
          <mxGeometry x="-150" y="-60" width="50" height="30" as="geometry" />
        </mxCell>
        <mxCell id="yyPYi6cn76s6Jaijz5V_-19" value="" style="rounded=1;whiteSpace=wrap;html=1;" vertex="1" parent="1">
          <mxGeometry x="-200" y="220" width="300" height="150" as="geometry" />
        </mxCell>
        <mxCell id="yyPYi6cn76s6Jaijz5V_-20" value="SendBufferChunk" style="text;html=1;align=center;verticalAlign=middle;resizable=0;points=[];autosize=1;strokeColor=none;fillColor=none;" vertex="1" parent="1">
          <mxGeometry x="-190" y="230" width="120" height="30" as="geometry" />
        </mxCell>
        <mxCell id="yyPYi6cn76s6Jaijz5V_-21" value="" style="rounded=1;whiteSpace=wrap;html=1;" vertex="1" parent="1">
          <mxGeometry x="160" y="220" width="300" height="150" as="geometry" />
        </mxCell>
        <mxCell id="yyPYi6cn76s6Jaijz5V_-22" value="SendBufferChunk" style="text;html=1;align=center;verticalAlign=middle;resizable=0;points=[];autosize=1;strokeColor=none;fillColor=none;" vertex="1" parent="1">
          <mxGeometry x="170" y="230" width="120" height="30" as="geometry" />
        </mxCell>
        <mxCell id="yyPYi6cn76s6Jaijz5V_-23" value="SendBufferChunk1" style="rounded=0;whiteSpace=wrap;html=1;" vertex="1" parent="1">
          <mxGeometry x="160" y="40" width="110" height="40" as="geometry" />
        </mxCell>
        <mxCell id="yyPYi6cn76s6Jaijz5V_-24" value="SendBufferChunk2" style="rounded=0;whiteSpace=wrap;html=1;" vertex="1" parent="1">
          <mxGeometry x="270" y="40" width="110" height="40" as="geometry" />
        </mxCell>
        <mxCell id="yyPYi6cn76s6Jaijz5V_-25" value="SendBufferChunk..." style="rounded=0;whiteSpace=wrap;html=1;" vertex="1" parent="1">
          <mxGeometry x="160" width="110" height="40" as="geometry" />
        </mxCell>
        <mxCell id="yyPYi6cn76s6Jaijz5V_-26" value="" style="rounded=0;whiteSpace=wrap;html=1;" vertex="1" parent="1">
          <mxGeometry x="270" width="110" height="40" as="geometry" />
        </mxCell>
        <mxCell id="yyPYi6cn76s6Jaijz5V_-29" value="SendBuffer1" style="rounded=0;whiteSpace=wrap;html=1;" vertex="1" parent="1">
          <mxGeometry x="-190" y="275" width="70" height="40" as="geometry" />
        </mxCell>
        <mxCell id="yyPYi6cn76s6Jaijz5V_-34" value="SendBuffer2" style="rounded=0;whiteSpace=wrap;html=1;" vertex="1" parent="1">
          <mxGeometry x="-120" y="275" width="70" height="40" as="geometry" />
        </mxCell>
        <mxCell id="yyPYi6cn76s6Jaijz5V_-35" value="..." style="rounded=0;whiteSpace=wrap;html=1;" vertex="1" parent="1">
          <mxGeometry x="-50" y="275" width="70" height="40" as="geometry" />
        </mxCell>
        <mxCell id="yyPYi6cn76s6Jaijz5V_-36" value="(buffer)" style="rounded=0;whiteSpace=wrap;html=1;" vertex="1" parent="1">
          <mxGeometry x="20" y="275" width="70" height="40" as="geometry" />
        </mxCell>
        <mxCell id="yyPYi6cn76s6Jaijz5V_-37" value="SendBuffer3" style="rounded=0;whiteSpace=wrap;html=1;" vertex="1" parent="1">
          <mxGeometry x="170" y="275" width="70" height="40" as="geometry" />
        </mxCell>
        <mxCell id="yyPYi6cn76s6Jaijz5V_-38" value="SendBuffer4" style="rounded=0;whiteSpace=wrap;html=1;" vertex="1" parent="1">
          <mxGeometry x="240" y="275" width="70" height="40" as="geometry" />
        </mxCell>
        <mxCell id="yyPYi6cn76s6Jaijz5V_-39" value="..." style="rounded=0;whiteSpace=wrap;html=1;" vertex="1" parent="1">
          <mxGeometry x="310" y="275" width="70" height="40" as="geometry" />
        </mxCell>
        <mxCell id="yyPYi6cn76s6Jaijz5V_-40" value="(buffer)" style="rounded=0;whiteSpace=wrap;html=1;" vertex="1" parent="1">
          <mxGeometry x="380" y="275" width="70" height="40" as="geometry" />
        </mxCell>
        <mxCell id="yyPYi6cn76s6Jaijz5V_-44" value="" style="endArrow=none;dashed=1;html=1;dashPattern=1 3;strokeWidth=2;rounded=0;entryX=0.5;entryY=1;entryDx=0;entryDy=0;exitX=0.25;exitY=0;exitDx=0;exitDy=0;strokeColor=#FFFFFF;" edge="1" parent="1" source="yyPYi6cn76s6Jaijz5V_-34" target="yyPYi6cn76s6Jaijz5V_-1">
          <mxGeometry width="50" height="50" relative="1" as="geometry">
            <mxPoint x="-250" y="80" as="sourcePoint" />
            <mxPoint x="-200" y="30" as="targetPoint" />
          </mxGeometry>
        </mxCell>
        <mxCell id="yyPYi6cn76s6Jaijz5V_-46" value="" style="endArrow=none;dashed=1;html=1;dashPattern=1 3;strokeWidth=2;rounded=0;exitX=0.25;exitY=0;exitDx=0;exitDy=0;strokeColor=#FFFFFF;" edge="1" parent="1" source="yyPYi6cn76s6Jaijz5V_-38">
          <mxGeometry width="50" height="50" relative="1" as="geometry">
            <mxPoint x="-240" y="140" as="sourcePoint" />
            <mxPoint x="10" y="110" as="targetPoint" />
          </mxGeometry>
        </mxCell>
        <mxCell id="yyPYi6cn76s6Jaijz5V_-47" value="" style="endArrow=none;html=1;rounded=0;exitX=0.25;exitY=0;exitDx=0;exitDy=0;entryX=0.5;entryY=1;entryDx=0;entryDy=0;strokeColor=#FFFFFF;" edge="1" parent="1" source="yyPYi6cn76s6Jaijz5V_-19" target="yyPYi6cn76s6Jaijz5V_-14">
          <mxGeometry width="50" height="50" relative="1" as="geometry">
            <mxPoint x="590" y="180" as="sourcePoint" />
            <mxPoint x="640" y="130" as="targetPoint" />
          </mxGeometry>
        </mxCell>
        <mxCell id="yyPYi6cn76s6Jaijz5V_-48" value="" style="endArrow=none;html=1;rounded=0;exitX=0.25;exitY=0;exitDx=0;exitDy=0;strokeColor=#FFFFFF;" edge="1" parent="1" source="yyPYi6cn76s6Jaijz5V_-21">
          <mxGeometry width="50" height="50" relative="1" as="geometry">
            <mxPoint x="470" y="150" as="sourcePoint" />
            <mxPoint x="270" y="110" as="targetPoint" />
          </mxGeometry>
        </mxCell>
        <mxCell id="yyPYi6cn76s6Jaijz5V_-49" value="TLS" style="text;html=1;align=center;verticalAlign=middle;resizable=0;points=[];autosize=1;strokeColor=none;fillColor=none;" vertex="1" parent="1">
          <mxGeometry x="20" y="190" width="50" height="30" as="geometry" />
        </mxCell>
        <mxCell id="yyPYi6cn76s6Jaijz5V_-50" value="TLS" style="text;html=1;align=center;verticalAlign=middle;resizable=0;points=[];autosize=1;strokeColor=none;fillColor=none;" vertex="1" parent="1">
          <mxGeometry x="390" y="190" width="50" height="30" as="geometry" />
        </mxCell>
      </root>
    </mxGraphModel>
  </diagram>
</mxfile>
